<svg width="184" height="67" viewBox="0 0 184 67" fill="none" xmlns="http://www.w3.org/2000/svg">
<path d="M33.5 67C52.0015 67 67 52.0015 67 33.5C67 14.9985 52.0015 0 33.5 0C14.9985 0 0 14.9985 0 33.5C0 52.0015 14.9985 67 33.5 67Z" fill="#FF0000"/>
<path fill-rule="evenodd" clip-rule="evenodd" d="M31.7651 36.0632L38.24 49.6662L26.7376 49.7423L20.6944 32.7893H24.8586C26.0012 32.7893 27.1692 32.3833 28.3372 31.5458C29.5052 30.7083 30.267 29.3124 30.5971 27.3329C30.7494 26.6984 30.8256 26.0639 30.8256 25.5056C30.8256 22.7901 29.4545 21.4196 26.7376 21.4196H22.6749L17.6982 49.6662H6.98291L12.9499 15.7348H31.5112C34.5582 15.7348 37.0212 16.3692 38.824 17.6636C40.6522 18.9579 41.5662 20.9882 41.5662 23.8052C41.5662 24.5666 41.4901 25.4041 41.3377 26.3431C40.9569 28.6526 40.2713 30.5052 39.281 31.8757C38.2907 33.2461 37.2751 34.2105 36.2086 34.7689C35.1422 35.3526 34.1519 35.6825 33.2378 35.8348C32.3491 35.9617 31.8413 36.0378 31.7651 36.0632ZM46.9493 39.7685H61.4225C61.524 39.7685 61.7272 38.9817 62.0319 37.4336C62.362 35.8855 62.5143 34.3628 62.5143 32.8401C62.5143 30.4545 62.0319 28.678 61.067 27.5359C60.0767 26.3685 58.8833 25.6325 57.4868 25.2772C56.0902 24.9473 54.2113 24.7696 51.7991 24.7696C44.08 24.9473 39.4841 29.3632 38.0368 38.0427C37.8337 39.1086 37.7321 40.2761 37.7321 41.5196C37.7321 47.0776 40.6268 50.0215 46.416 50.3261C46.5938 50.3261 46.8731 50.3261 47.2286 50.3514C47.5841 50.3768 47.8888 50.3768 48.0919 50.3768C50.5803 50.3768 52.7386 50.1484 54.5921 49.717C56.4457 49.2855 57.7153 48.9302 58.4517 48.6257L60.5338 42.7886C59.8736 43.22 58.6802 43.753 56.9789 44.4128C55.2777 45.0473 53.2972 45.428 50.9865 45.5041C48.1173 45.5041 46.6954 44.159 46.6954 41.4942C46.7207 40.3522 46.7969 39.7685 46.9493 39.7685ZM52.9925 30.0738C55.2777 30.2514 56.4203 31.4189 56.4203 33.5761C56.3442 34.8704 56.2172 35.5302 56.0395 35.5302H47.6856C47.7364 34.6166 48.1173 33.4745 48.8282 32.1295C49.5646 30.759 50.9357 30.0738 52.9925 30.0738Z" fill="white"/>
<path d="M79.3995 32.2059C79.3995 32.7642 79.755 33.1703 80.4406 33.3733C81.1262 33.5764 82.345 33.8048 84.0462 34.0078C85.7474 34.2108 87.0678 34.4646 87.9565 34.7184C90.9273 35.632 92.4254 37.4086 92.4254 40.0733C92.4254 40.3525 92.4 40.7839 92.3238 41.3423C91.5621 47.1033 87.6264 50.1487 80.466 50.4786C80.0851 50.504 79.5265 50.5294 78.7901 50.5294C76.3779 50.5294 74.3212 50.3264 72.62 49.8949C70.8933 49.4889 70.03 49.1843 70.03 49.0574V42.8904C70.5379 43.3472 71.452 43.9055 72.8231 44.6161C74.1689 45.3014 75.8447 45.682 77.8506 45.7328C79.9835 45.7328 81.5578 45.5044 82.5481 45.0476C83.5638 44.5908 84.1478 43.8294 84.3001 42.7381C84.3001 41.7737 83.9446 41.0631 83.2337 40.657C82.5227 40.251 81.6086 39.9464 80.4914 39.8195C79.3741 39.6926 78.0284 39.515 76.4795 39.3373C74.8798 39.0582 73.6356 38.5506 72.7469 37.8654C71.8582 37.1801 71.4266 36.0889 71.4266 34.5661C71.4266 33.7033 71.6043 32.6627 71.9598 31.4192C72.62 29.2873 74.245 27.5362 76.835 26.1911C78.3331 25.4551 80.3136 25.0237 82.8274 24.8714C83.2844 24.8461 83.9192 24.8207 84.7825 24.8207C86.9916 24.8207 88.7944 24.973 90.1656 25.3029C91.5367 25.6328 92.4762 25.8866 92.9586 26.0896L93.4919 31.0131C93.4919 31.0131 93.0602 30.8608 92.2477 30.5563C91.4351 30.2517 90.4195 29.9726 89.2007 29.7188C87.9819 29.465 86.56 29.3381 84.9349 29.3381C81.4055 29.3381 79.5519 30.3025 79.3995 32.2059Z" fill="black"/>
<path d="M101.261 29.4395H94.7612L95.4976 25.3535H116.217L115.481 29.4395H108.981L105.4 49.7933H97.6813L101.261 29.4395Z" fill="black"/>
<path d="M115.455 46.1895L113.449 49.7933H107.914L121.346 25.3535H128.329L133.306 49.7933H125.13L124.393 46.1895H115.455ZM123.479 41.9258L122.006 34.4137L117.817 41.9258H123.479Z" fill="black"/>
<path d="M153.416 39.9972L158.088 49.7934L149.785 49.8442L145.418 37.6116H148.414C149.252 37.6116 150.09 37.307 150.928 36.7233C151.766 36.1142 152.324 35.1245 152.578 33.6779C152.68 33.1957 152.73 32.7642 152.73 32.3582C152.73 30.404 151.766 29.4142 149.785 29.4142H146.865L143.285 49.768H135.566L139.882 25.3282H153.264C155.473 25.3282 157.225 25.7851 158.545 26.7241C159.865 27.6631 160.526 29.1351 160.526 31.1654C160.526 31.6983 160.475 32.3074 160.373 32.9926C160.094 34.6676 159.586 35.9873 158.901 36.9771C158.215 37.9669 157.453 38.6521 156.666 39.0582C155.904 39.4642 155.193 39.718 154.533 39.8195C153.848 39.921 153.492 39.9718 153.416 39.9972Z" fill="black"/>
<path d="M168.905 29.4395H162.405L163.141 25.3535H183.861L183.124 29.4395H176.624L173.044 49.7933H165.325L168.905 29.4395Z" fill="black"/>
</svg>
